<svg xmlns="http://www.w3.org/2000/svg" xmlns:xlink="http://www.w3.org/1999/xlink" width="500" zoomAndPan="magnify" viewBox="0 0 375 374.999991" height="500" preserveAspectRatio="xMidYMid meet" version="1.0"><defs><g/><clipPath id="b3dd8e2881"><path d="M 106.96875 55.382812 L 271.023438 55.382812 L 271.023438 277.335938 L 106.96875 277.335938 Z M 106.96875 55.382812 " clip-rule="nonzero"/></clipPath></defs><g clip-path="url(#b3dd8e2881)"><path fill="#c08e32" d="M 262.660156 159.949219 C 265.996094 149.03125 262.394531 139.886719 254.347656 133.007812 C 256.925781 125.195312 258.347656 115.253906 252.523438 109.128906 C 247.945312 104.335938 241.097656 104.203125 235.054688 105.492188 C 231.941406 106.15625 228.917969 106.023438 225.984375 105.226562 C 228.785156 97.238281 232.03125 89.425781 235.941406 81.925781 L 240.433594 73.359375 L 230.785156 74.425781 C 225.007812 75.089844 219.492188 76.6875 214.425781 79.394531 C 212.46875 78.773438 210.46875 78.640625 208.421875 78.90625 C 206.378906 76.421875 203.753906 74.691406 200.554688 73.757812 C 198.554688 69.363281 196.066406 65.28125 193.21875 61.332031 L 188.996094 55.382812 L 184.773438 61.332031 C 181.972656 65.28125 179.4375 69.363281 177.480469 73.757812 C 174.324219 74.691406 171.65625 76.421875 169.613281 78.90625 C 167.566406 78.640625 165.566406 78.773438 163.609375 79.394531 C 158.5 76.6875 153.03125 75.089844 147.25 74.425781 L 137.605469 73.359375 L 142.09375 81.925781 C 146.007812 89.425781 149.25 97.238281 152.050781 105.226562 C 149.117188 105.980469 146.09375 106.113281 142.984375 105.492188 C 136.9375 104.203125 130.089844 104.335938 125.511719 109.128906 C 119.6875 115.253906 121.15625 125.195312 123.6875 133.007812 C 115.6875 139.886719 112.085938 149.03125 115.375 159.949219 C 117.375 166.472656 116.574219 170.066406 111.863281 174.726562 L 106.972656 179.5625 L 112.976562 182.890625 C 113.910156 183.425781 114.84375 183.824219 115.820312 184.089844 C 112.753906 197.539062 118 209.34375 127.335938 220.351562 C 130.269531 234.820312 141.203125 242.320312 153.652344 248.84375 C 155.964844 252.171875 158.855469 254.878906 162.234375 257.1875 C 169.746094 262.378906 179.039062 265.175781 184.996094 272.453125 L 188.996094 277.335938 L 192.996094 272.453125 C 198.910156 265.21875 208.246094 262.425781 215.757812 257.1875 C 219.136719 254.878906 222.027344 252.171875 224.339844 248.84375 C 236.742188 242.363281 247.679688 234.863281 250.65625 220.351562 C 259.992188 209.34375 265.285156 197.539062 262.171875 184.089844 C 263.148438 183.824219 264.082031 183.425781 265.015625 182.890625 L 271.019531 179.5625 L 266.128906 174.726562 C 261.460938 170.066406 260.660156 166.515625 262.660156 159.949219 Z M 254.925781 178.675781 C 261.726562 194.03125 255.949219 206.503906 245.8125 218.042969 C 243.542969 232.066406 232.5625 238.8125 220.78125 244.847656 C 213.136719 256.964844 198.554688 257.496094 188.996094 269.171875 C 179.4375 257.496094 164.855469 256.964844 157.253906 244.847656 C 145.429688 238.769531 134.449219 232.066406 132.179688 218.042969 C 122.089844 206.546875 116.265625 194.03125 123.066406 178.675781 C 120.445312 179.5625 117.863281 179.695312 115.464844 178.410156 C 119.953125 173.972656 123.421875 168.867188 120.265625 158.484375 C 117.375 148.941406 120.800781 141.085938 129.78125 134.828125 C 123.378906 118.628906 126.179688 107.222656 141.871094 110.59375 C 147.605469 111.839844 153.207031 110.863281 158.542969 108.464844 C 155.253906 98.523438 151.429688 88.847656 146.671875 79.617188 C 153.074219 80.371094 158.542969 82.28125 163.253906 85.164062 C 165.921875 83.65625 168.855469 83.65625 171.925781 84.855469 C 173.703125 81.347656 176.503906 78.863281 181.171875 78.285156 C 183.171875 73.136719 185.972656 68.609375 188.996094 64.351562 C 192.019531 68.609375 194.820312 73.09375 196.820312 78.285156 C 201.488281 78.863281 204.289062 81.347656 206.066406 84.855469 C 209.179688 83.699219 212.070312 83.65625 214.738281 85.164062 C 219.492188 82.28125 224.960938 80.328125 231.320312 79.617188 C 226.519531 88.804688 222.695312 98.480469 219.449219 108.464844 C 224.738281 110.863281 230.386719 111.839844 236.121094 110.59375 C 251.8125 107.222656 254.613281 118.628906 248.210938 134.828125 C 257.191406 141.085938 260.617188 148.941406 257.726562 158.484375 C 254.613281 168.824219 258.039062 173.925781 262.527344 178.410156 C 260.128906 179.695312 257.546875 179.5625 254.925781 178.675781 Z M 249.589844 165.539062 C 244.746094 158.394531 237.808594 152.359375 235.097656 144.101562 C 239.320312 147.699219 243.234375 151.824219 246.34375 157.328125 C 247.414062 144.679688 238.699219 139.84375 232.339844 133.273438 C 227.941406 128.746094 223.984375 119.160156 217.183594 121.867188 L 209.667969 115.34375 L 214.558594 115.078125 C 208.289062 109.664062 203.445312 108.777344 197.664062 113.835938 C 201.886719 104.070312 208.203125 105.757812 217.226562 114.855469 C 224.027344 121.691406 231.320312 128.082031 238.921875 134.027344 C 256.882812 147.964844 250.835938 153.203125 249.589844 165.539062 Z M 128.402344 165.539062 C 127.15625 153.203125 121.109375 148.007812 139.070312 134.027344 C 146.671875 128.125 153.964844 121.691406 160.722656 114.855469 C 169.746094 105.757812 176.058594 104.070312 180.28125 113.835938 C 174.546875 108.777344 169.703125 109.707031 163.390625 115.078125 L 168.277344 115.34375 L 160.855469 121.867188 C 154.054688 119.160156 150.097656 128.746094 145.695312 133.273438 C 139.292969 139.796875 130.578125 144.636719 131.691406 157.328125 C 134.757812 151.824219 138.671875 147.699219 142.894531 144.101562 C 140.183594 152.3125 133.246094 158.394531 128.402344 165.539062 Z M 243.5 122.578125 C 238.34375 121.292969 233.363281 119.605469 228.5625 117.429688 C 232.074219 117.429688 235.542969 117.121094 239.054688 116.675781 C 246.390625 115.832031 246.699219 122.265625 243.367188 130.433594 L 237.1875 125.285156 C 239.5 124.664062 241.675781 123.910156 243.5 122.578125 Z M 188.996094 117.472656 C 194.820312 105.890625 201.53125 96.613281 214.515625 105.046875 C 216.425781 99.8125 218.515625 94.574219 221.136719 89.515625 C 218.558594 90.710938 216.292969 92.175781 214.160156 93.730469 C 212.023438 88.671875 208.378906 89.335938 205.355469 92.886719 C 211.046875 92.84375 212.203125 99.144531 207.179688 100.078125 C 203.132812 100.832031 196.777344 98.210938 195.042969 94.175781 C 193.175781 89.734375 196.152344 85.074219 199.664062 90.578125 C 201.976562 86.007812 198.554688 82.902344 192.109375 84.453125 C 191.617188 80.816406 190.640625 77.488281 188.996094 74.46875 C 187.394531 77.488281 186.375 80.816406 185.882812 84.453125 C 179.4375 82.902344 175.96875 86.007812 178.328125 90.578125 C 181.882812 85.074219 184.863281 89.734375 182.949219 94.175781 C 181.261719 98.210938 174.902344 100.875 170.8125 100.078125 C 165.789062 99.144531 166.902344 92.796875 172.636719 92.886719 C 169.570312 89.382812 165.96875 88.671875 163.832031 93.730469 C 161.699219 92.175781 159.433594 90.710938 156.855469 89.515625 C 159.433594 94.574219 161.566406 99.8125 163.476562 105.046875 C 176.503906 96.613281 183.171875 105.890625 188.996094 117.472656 Z M 188.996094 91.332031 C 190.507812 94.484375 192.332031 97.371094 194.640625 99.765625 C 192.464844 101.363281 190.640625 103.273438 188.996094 105.269531 C 187.351562 103.273438 185.527344 101.410156 183.394531 99.765625 C 185.660156 97.371094 187.484375 94.527344 188.996094 91.332031 Z M 134.582031 130.390625 C 131.246094 122.222656 131.558594 115.789062 138.894531 116.632812 C 142.40625 117.074219 145.871094 117.386719 149.429688 117.386719 C 144.628906 119.558594 139.648438 121.246094 134.492188 122.535156 C 136.316406 123.867188 138.492188 124.621094 140.761719 125.195312 Z M 237.320312 159.414062 C 249.769531 176.191406 254.613281 192.347656 245.589844 207.390625 C 241.8125 200.289062 237.320312 193.457031 234.253906 186.132812 C 231.628906 201.398438 246.480469 214.269531 226.382812 231.933594 C 225.449219 224.523438 223.40625 217.464844 218.914062 211.074219 C 223.183594 242.496094 206.691406 243.519531 198.554688 250.128906 C 199.042969 245.78125 200.242188 241.386719 202.023438 236.90625 C 196.464844 240.988281 192.285156 246.445312 188.996094 252.835938 C 185.707031 246.445312 181.527344 240.988281 175.96875 236.90625 C 177.75 241.386719 178.949219 245.78125 179.4375 250.128906 C 171.300781 243.519531 154.851562 242.453125 159.078125 211.074219 C 154.585938 217.464844 152.496094 224.523438 151.609375 231.933594 C 131.511719 214.226562 146.363281 201.355469 143.738281 186.089844 C 140.671875 193.410156 136.179688 200.246094 132.402344 207.347656 C 123.378906 192.347656 128.222656 176.191406 140.671875 159.371094 C 137.914062 173.21875 127.691406 182.847656 131.558594 192.613281 C 132.445312 183.648438 139.425781 178.542969 143.339844 171.53125 C 144.140625 175.035156 144.050781 178.5 144.40625 181.960938 C 145.738281 177.433594 148.273438 173.792969 150.140625 169.710938 C 154.765625 185.023438 146.363281 199.667969 146.496094 214.804688 C 148.894531 207.789062 152.765625 201.488281 157.742188 195.761719 C 158.277344 196.25 158.808594 196.652344 159.476562 197.003906 C 159.164062 200.824219 159.566406 204.59375 160.632812 208.410156 C 161.878906 205.835938 163.433594 203.351562 165.34375 201.042969 C 163.167969 215.644531 167.167969 225.765625 174.101562 232.734375 C 172.234375 227.097656 171.257812 221.195312 171.613281 214.9375 C 175.792969 222.390625 183.660156 227.628906 189.039062 235.261719 C 194.417969 227.671875 202.289062 222.390625 206.46875 214.9375 C 206.777344 221.195312 205.84375 227.097656 203.976562 232.734375 C 210.914062 225.765625 214.871094 215.601562 212.691406 201.042969 C 214.601562 203.351562 216.203125 205.835938 217.402344 208.410156 C 218.472656 204.59375 218.871094 200.824219 218.558594 197.007812 C 219.183594 196.652344 219.761719 196.25 220.292969 195.761719 C 225.226562 201.53125 229.097656 207.789062 231.496094 214.804688 C 231.628906 199.667969 223.226562 185.023438 227.851562 169.710938 C 229.761719 173.792969 232.253906 177.433594 233.585938 181.960938 C 233.941406 178.5 233.851562 174.992188 234.652344 171.53125 C 238.566406 178.542969 245.546875 183.648438 246.433594 192.613281 C 250.300781 182.894531 240.03125 173.261719 237.320312 159.414062 Z M 188.996094 188.796875 C 194.199219 188.796875 198.066406 197.804688 206.246094 199.625 C 205.578125 212.9375 195.351562 215.601562 188.996094 220.839844 C 182.640625 215.601562 172.414062 212.9375 171.746094 199.625 C 179.925781 197.847656 183.792969 188.796875 188.996094 188.796875 Z M 188.996094 128.613281 C 179.617188 116.144531 174.457031 115.476562 165.878906 125.773438 C 166.589844 126.882812 167.078125 128.082031 167.433594 129.28125 C 165.476562 128.570312 163.523438 127.902344 161.476562 127.371094 C 160.011719 126.972656 158.585938 127.371094 157.519531 128.4375 C 154.71875 131.234375 152.140625 134.117188 149.875 137.179688 C 148.894531 138.511719 148.808594 140.199219 149.605469 141.617188 L 151.875 145.566406 C 142.316406 164.296875 153.164062 162.386719 158.007812 167.980469 C 161.566406 164.121094 165.523438 161.457031 169.878906 160.035156 C 151.832031 181.339844 157.519531 205.082031 180.105469 186.796875 C 196.199219 173.792969 173.390625 153.957031 181.304688 173.21875 C 178.015625 171.21875 174.859375 169.046875 172.503906 166.027344 C 171.878906 165.273438 171.925781 164.164062 172.546875 163.410156 C 174.101562 161.632812 175.96875 160.035156 178.328125 158.660156 C 178.59375 158.527344 178.859375 158.4375 179.125 158.394531 C 182.417969 158.039062 185.617188 157.863281 188.90625 157.863281 C 192.195312 157.863281 195.398438 158.039062 198.6875 158.394531 C 198.953125 158.4375 199.222656 158.527344 199.488281 158.660156 C 201.800781 159.992188 203.710938 161.632812 205.265625 163.410156 C 205.933594 164.164062 205.980469 165.230469 205.355469 166.027344 C 203 169.046875 199.84375 171.175781 196.554688 173.21875 C 204.46875 153.957031 181.660156 173.792969 197.753906 186.796875 C 220.382812 205.082031 226.027344 181.292969 207.980469 160.035156 C 212.335938 161.457031 216.292969 164.121094 219.894531 167.980469 C 224.738281 162.386719 235.585938 164.296875 226.027344 145.566406 L 228.296875 141.617188 C 229.097656 140.199219 229.007812 138.511719 228.027344 137.179688 C 225.761719 134.117188 223.183594 131.234375 220.425781 128.4375 C 219.359375 127.371094 217.894531 126.972656 216.425781 127.371094 C 214.382812 127.902344 212.378906 128.613281 210.46875 129.28125 C 210.867188 128.082031 211.359375 126.882812 212.023438 125.773438 C 203.578125 115.476562 198.375 116.144531 188.996094 128.613281 Z M 181.925781 142.328125 C 178.859375 146.632812 176.015625 150.9375 173.257812 155.289062 C 173.703125 152.003906 174.28125 148.71875 175.304688 145.433594 C 172.101562 146.632812 168.855469 147.164062 165.476562 146.945312 C 168.058594 145.566406 170.589844 144.101562 172.945312 142.328125 L 166.902344 139.132812 C 165.523438 138.421875 163.921875 138.511719 162.632812 139.398438 L 160.542969 140.863281 C 161.566406 142.90625 162.898438 144.722656 164.277344 146.542969 C 160.722656 145.167969 157.699219 142.992188 154.054688 141.882812 C 157.34375 138.734375 161.699219 132.652344 166.632812 134.871094 L 173.878906 138.289062 C 174.101562 138.378906 174.324219 138.421875 174.546875 138.378906 C 175.347656 138.199219 176.105469 137.980469 176.859375 137.625 C 177.304688 137.402344 177.527344 137.003906 177.4375 136.558594 C 177.171875 134.695312 176.726562 132.832031 176.148438 130.964844 C 178.28125 133.007812 180.195312 135.269531 181.925781 137.667969 C 182.949219 139.042969 182.949219 140.863281 181.925781 142.328125 Z M 211.359375 134.78125 C 216.292969 132.5625 220.648438 138.644531 223.9375 141.796875 C 220.339844 142.90625 217.269531 145.078125 213.714844 146.457031 C 215.09375 144.636719 216.425781 142.859375 217.449219 140.773438 L 215.359375 139.308594 C 214.070312 138.421875 212.515625 138.332031 211.136719 139.042969 L 205.089844 142.238281 C 207.488281 143.96875 209.980469 145.480469 212.558594 146.855469 C 209.179688 147.078125 205.890625 146.542969 202.734375 145.347656 C 203.753906 148.628906 204.289062 151.914062 204.777344 155.199219 C 202.023438 150.847656 199.175781 146.542969 196.109375 142.238281 C 195.085938 140.773438 195.085938 138.953125 196.109375 137.492188 C 197.796875 135.09375 199.710938 132.832031 201.84375 130.789062 C 201.3125 132.652344 200.820312 134.515625 200.554688 136.378906 C 200.511719 136.824219 200.734375 137.269531 201.132812 137.445312 C 201.886719 137.800781 202.6875 138.023438 203.445312 138.199219 C 203.667969 138.246094 203.890625 138.199219 204.113281 138.113281 Z M 211.359375 134.78125 " fill-opacity="1" fill-rule="evenodd"/></g><g fill="#dddac4" fill-opacity="1"><g transform="translate(31.346646, 346.15169)"><g><path d="M 32.671875 -13.746094 L 24.898438 -1.125 L 15.773438 -1.125 L 15.773438 -37.851562 L 18.589844 -38.304688 L 18.589844 -39.429688 L 0.5625 -39.429688 L 0.5625 -38.304688 L 3.378906 -37.851562 L 3.378906 -1.578125 L 0.5625 -1.125 L 0.5625 0 L 33.796875 0 L 33.796875 -13.746094 Z M 32.671875 -13.746094 "/></g></g></g><g fill="#dddac4" fill-opacity="1"><g transform="translate(74.383245, 346.15169)"><g><path d="M 0.5625 -38.304688 L 3.378906 -37.851562 L 3.378906 -1.578125 L 0.5625 -1.125 L 0.5625 0 L 18.589844 0 L 18.589844 -1.125 L 15.773438 -1.519531 L 15.773438 -37.851562 L 18.589844 -38.304688 L 18.589844 -39.429688 L 0.5625 -39.429688 Z M 0.5625 -38.304688 "/></g></g></g><g fill="#dddac4" fill-opacity="1"><g transform="translate(102.211261, 346.15169)"><g><path d="M 23.09375 -39.992188 C 9.914062 -39.992188 1.691406 -32.332031 1.691406 -19.714844 C 1.691406 -7.097656 9.914062 0.5625 23.09375 0.5625 C 36.386719 0.5625 44.5 -7.097656 44.5 -19.714844 C 44.5 -32.332031 36.386719 -39.992188 23.09375 -39.992188 Z M 23.09375 -38.867188 C 27.828125 -38.867188 30.191406 -34.925781 30.191406 -19.714844 C 30.191406 -4.507812 27.828125 -0.5625 23.09375 -0.5625 C 18.363281 -0.5625 15.996094 -4.84375 15.996094 -19.714844 C 15.996094 -34.925781 18.363281 -38.867188 23.09375 -38.867188 Z M 23.09375 -38.867188 "/></g></g></g><g fill="#dddac4" fill-opacity="1"><g transform="translate(157.076748, 346.15169)"><g><path d="M 0.5625 -38.304688 L 3.378906 -37.851562 L 3.378906 -1.578125 L 0.5625 -1.125 L 0.5625 0 L 7.324219 0 L 7.324219 -1.125 L 4.507812 -1.578125 L 4.507812 -37.175781 L 22.871094 0 L 39.429688 0 L 39.429688 -1.125 L 36.613281 -1.578125 L 36.613281 -37.851562 L 39.429688 -38.304688 L 39.429688 -39.429688 L 32.671875 -39.429688 L 32.671875 -38.304688 L 35.488281 -37.851562 L 35.488281 -2.253906 L 17.125 -39.429688 L 0.5625 -39.429688 Z M 0.5625 -38.304688 "/></g></g></g><g fill="#dddac4" fill-opacity="1"><g transform="translate(205.74616, 346.15169)"><g><path d="M 0.5625 -38.304688 L 3.378906 -37.851562 L 3.378906 -1.578125 L 0.5625 -1.125 L 0.5625 0 L 25.910156 0 C 34.699219 0 42.808594 -6.082031 42.808594 -19.714844 C 42.808594 -33.347656 34.699219 -39.429688 25.910156 -39.429688 L 0.5625 -39.429688 Z M 15.773438 -38.304688 L 19.152344 -38.304688 C 25.347656 -38.304688 30.417969 -34.136719 30.417969 -19.714844 C 30.417969 -5.183594 24.785156 -1.125 19.152344 -1.125 L 15.773438 -1.125 Z M 15.773438 -38.304688 "/></g></g></g><g fill="#dddac4" fill-opacity="1"><g transform="translate(258.921811, 346.15169)"><g><path d="M 3.378906 -39.429688 L 0.5625 -39.429688 L 0.5625 -38.304688 L 3.378906 -37.851562 L 3.378906 -1.578125 L 0.5625 -1.125 L 0.5625 0 L 33.796875 0 L 33.796875 -12.390625 L 32.671875 -12.390625 L 25.011719 -1.125 L 15.773438 -1.125 L 15.773438 -19.152344 L 24.671875 -19.152344 L 25.6875 -14.984375 L 26.8125 -14.984375 L 26.8125 -24.558594 L 25.6875 -24.558594 L 24.671875 -20.277344 L 15.773438 -20.277344 L 15.773438 -38.304688 L 25.011719 -38.304688 L 32.671875 -27.039062 L 33.796875 -27.039062 L 33.796875 -39.429688 Z M 3.378906 -39.429688 "/></g></g></g><g fill="#dddac4" fill-opacity="1"><g transform="translate(303.084963, 346.15169)"><g><path d="M 16.785156 -37.964844 L 19.152344 -38.304688 L 19.152344 -39.429688 L 0.5625 -39.429688 L 0.5625 -38.304688 L 3.492188 -37.851562 L 13.855469 0 L 26.8125 0 L 37.0625 -37.796875 L 39.992188 -38.304688 L 39.992188 -39.429688 L 33.234375 -39.429688 L 33.234375 -38.304688 L 35.9375 -37.851562 L 26.363281 -2.816406 L 26.136719 -2.253906 L 26.023438 -2.816406 Z M 16.785156 -37.964844 "/></g></g></g><g fill="#dddac4" fill-opacity="1"><g transform="translate(34.022987, 247.113911)"><g><path d="M 1.519531 -13.636719 L 0.351562 -13.636719 L 0.351562 -13.246094 L 1.519531 -13.128906 L 1.519531 -0.507812 L 0.351562 -0.390625 L 0.351562 0 L 10.949219 0 L 10.949219 -3.234375 L 10.558594 -3.234375 L 9.117188 -0.390625 L 4.089844 -0.390625 L 4.089844 -6.621094 L 8.121094 -6.621094 L 8.296875 -5.179688 L 8.6875 -5.179688 L 8.6875 -8.492188 L 8.296875 -8.492188 L 8.121094 -7.011719 L 4.089844 -7.011719 L 4.089844 -13.246094 L 9.117188 -13.246094 L 10.558594 -10.441406 L 10.949219 -10.441406 L 10.949219 -13.636719 Z M 1.519531 -13.636719 "/></g></g></g><g fill="#dddac4" fill-opacity="1"><g transform="translate(48.746006, 247.113911)"><g><path d="M 8.433594 -13.246094 L 9.855469 -10.167969 L 10.246094 -10.167969 L 10.246094 -13.636719 L 4.714844 -13.636719 C 2.335938 -13.636719 0.816406 -12.117188 0.816406 -9.933594 C 0.816406 -7.753906 1.832031 -6.46875 3.855469 -6 L 6.3125 -5.414062 C 7.910156 -5.027344 8.648438 -4.285156 8.648438 -2.765625 C 8.648438 -1.207031 7.597656 -0.390625 6.078125 -0.390625 L 3.175781 -0.390625 L 1.714844 -3.507812 L 1.324219 -3.507812 L 1.324219 0 L 7.402344 0 C 9.777344 0 11.21875 -1.558594 11.21875 -3.738281 C 11.21875 -5.921875 10.246094 -7.167969 8.21875 -7.636719 L 5.726562 -8.21875 C 4.128906 -8.609375 3.390625 -9.351562 3.390625 -10.871094 C 3.390625 -12.429688 4.480469 -13.246094 6 -13.246094 Z M 8.433594 -13.246094 "/></g></g></g><g fill="#dddac4" fill-opacity="1"><g transform="translate(63.624814, 247.113911)"><g><path d="M 0.738281 -10.050781 L 2.164062 -13.246094 L 4.363281 -13.246094 L 4.363281 -0.527344 L 3.195312 -0.390625 L 3.195312 0 L 8.101562 0 L 8.101562 -0.390625 L 6.933594 -0.527344 L 6.933594 -13.246094 L 9.097656 -13.246094 L 10.597656 -10.050781 L 10.988281 -10.050781 L 10.988281 -13.636719 L 0.351562 -13.636719 L 0.351562 -10.050781 Z M 0.738281 -10.050781 "/></g></g></g><g fill="#dddac4" fill-opacity="1"><g transform="translate(77.84155, 247.113911)"><g><path d="M 0.351562 -13.246094 L 1.519531 -13.128906 L 1.519531 -0.507812 L 0.351562 -0.390625 L 0.351562 0 L 7.988281 0 C 11.023438 0 13.832031 -2.066406 13.832031 -6.816406 C 13.832031 -11.570312 11.023438 -13.636719 7.988281 -13.636719 L 0.351562 -13.636719 Z M 4.089844 -13.246094 L 6.660156 -13.246094 C 9.117188 -13.246094 11.257812 -11.648438 11.257812 -6.816406 C 11.257812 -1.988281 9 -0.390625 6.660156 -0.390625 L 4.089844 -0.390625 Z M 4.089844 -13.246094 "/></g></g></g><g fill="#dddac4" fill-opacity="1"><g transform="translate(284.987054, 247.113911)"><g><path d="M 7.519531 -13.636719 L 1.832031 -13.636719 L 1.832031 -10.441406 L 2.21875 -10.441406 L 3.664062 -13.246094 L 5.804688 -13.246094 C 7.246094 -13.246094 8.335938 -12.582031 8.335938 -11.023438 C 8.335938 -9.351562 7.519531 -8.648438 6.195312 -8.257812 L 3.972656 -7.558594 C 1.949219 -6.855469 0.855469 -5.726562 0.855469 -3.507812 C 0.855469 -1.324219 2.21875 0 4.246094 0 L 10.363281 0 L 10.363281 -3.234375 L 10.011719 -3.234375 L 8.570312 -0.390625 L 5.960938 -0.390625 C 4.519531 -0.390625 3.390625 -1.207031 3.390625 -2.765625 C 3.390625 -4.246094 4.167969 -4.949219 5.492188 -5.375 L 7.792969 -6.117188 C 9.777344 -6.777344 10.871094 -7.988281 10.871094 -10.089844 C 10.871094 -12.273438 9.542969 -13.636719 7.519531 -13.636719 Z M 7.519531 -13.636719 "/></g></g></g><g fill="#dddac4" fill-opacity="1"><g transform="translate(299.671136, 247.113911)"><g><path d="M 6.351562 -13.441406 C 8.296875 -13.441406 9.351562 -11.648438 9.351562 -6.816406 C 9.351562 -1.988281 8.296875 -0.195312 6.351562 -0.195312 C 4.402344 -0.195312 3.351562 -2.066406 3.351562 -6.816406 C 3.351562 -11.648438 4.402344 -13.441406 6.351562 -13.441406 Z M 6.351562 -13.832031 C 2.882812 -13.832031 0.816406 -11.257812 0.816406 -6.816406 C 0.816406 -2.375 2.882812 0.195312 6.351562 0.195312 C 9.816406 0.195312 11.84375 -2.375 11.84375 -6.816406 C 11.84375 -11.257812 9.816406 -13.832031 6.351562 -13.832031 Z M 6.351562 -13.832031 "/></g></g></g><g fill="#dddac4" fill-opacity="1"><g transform="translate(315.328846, 247.113911)"><g><path d="M 7.519531 -13.636719 L 1.832031 -13.636719 L 1.832031 -10.441406 L 2.21875 -10.441406 L 3.664062 -13.246094 L 5.804688 -13.246094 C 7.246094 -13.246094 8.335938 -12.582031 8.335938 -11.023438 C 8.335938 -9.351562 7.519531 -8.648438 6.195312 -8.257812 L 3.972656 -7.558594 C 1.949219 -6.855469 0.855469 -5.726562 0.855469 -3.507812 C 0.855469 -1.324219 2.21875 0 4.246094 0 L 10.363281 0 L 10.363281 -3.234375 L 10.011719 -3.234375 L 8.570312 -0.390625 L 5.960938 -0.390625 C 4.519531 -0.390625 3.390625 -1.207031 3.390625 -2.765625 C 3.390625 -4.246094 4.167969 -4.949219 5.492188 -5.375 L 7.792969 -6.117188 C 9.777344 -6.777344 10.871094 -7.988281 10.871094 -10.089844 C 10.871094 -12.273438 9.542969 -13.636719 7.519531 -13.636719 Z M 7.519531 -13.636719 "/></g></g></g><g fill="#dddac4" fill-opacity="1"><g transform="translate(330.012927, 247.113911)"><g><path d="M 7.519531 -13.636719 L 1.832031 -13.636719 L 1.832031 -10.441406 L 2.21875 -10.441406 L 3.664062 -13.246094 L 5.804688 -13.246094 C 7.246094 -13.246094 8.335938 -12.582031 8.335938 -11.023438 C 8.335938 -9.351562 7.519531 -8.648438 6.195312 -8.257812 L 3.972656 -7.558594 C 1.949219 -6.855469 0.855469 -5.726562 0.855469 -3.507812 C 0.855469 -1.324219 2.21875 0 4.246094 0 L 10.363281 0 L 10.363281 -3.234375 L 10.011719 -3.234375 L 8.570312 -0.390625 L 5.960938 -0.390625 C 4.519531 -0.390625 3.390625 -1.207031 3.390625 -2.765625 C 3.390625 -4.246094 4.167969 -4.949219 5.492188 -5.375 L 7.792969 -6.117188 C 9.777344 -6.777344 10.871094 -7.988281 10.871094 -10.089844 C 10.871094 -12.273438 9.542969 -13.636719 7.519531 -13.636719 Z M 7.519531 -13.636719 "/></g></g></g></svg>