<svg xmlns="http://www.w3.org/2000/svg" xmlns:xlink="http://www.w3.org/1999/xlink" width="500" zoomAndPan="magnify" viewBox="0 0 375 374.999991" height="500" preserveAspectRatio="xMidYMid meet" version="1.0"><defs><g/><clipPath id="c29fc6afc9"><path d="M 107.867188 0 L 270.089844 0 L 270.089844 219.480469 L 107.867188 219.480469 Z M 107.867188 0 " clip-rule="nonzero"/></clipPath></defs><g clip-path="url(#c29fc6afc9)"><path fill="#c08e32" d="M 261.824219 103.398438 C 265.121094 92.601562 261.558594 83.5625 253.601562 76.757812 C 256.152344 69.035156 257.558594 59.203125 251.800781 53.148438 C 247.273438 48.40625 240.503906 48.277344 234.523438 49.546875 C 231.445312 50.207031 228.457031 50.074219 225.554688 49.285156 C 228.324219 41.386719 231.535156 33.660156 235.402344 26.246094 L 239.84375 17.773438 L 230.304688 18.828125 C 224.589844 19.484375 219.136719 21.066406 214.125 23.742188 C 212.191406 23.128906 210.214844 22.996094 208.191406 23.261719 C 206.167969 20.800781 203.574219 19.089844 200.410156 18.167969 C 198.429688 13.824219 195.96875 9.785156 193.15625 5.882812 L 188.980469 0 L 184.804688 5.882812 C 182.035156 9.785156 179.527344 13.824219 177.59375 18.167969 C 174.472656 19.089844 171.835938 20.800781 169.8125 23.261719 C 167.789062 22.996094 165.8125 23.128906 163.878906 23.742188 C 158.820312 21.066406 153.414062 19.484375 147.699219 18.828125 L 138.160156 17.773438 L 142.601562 26.246094 C 146.46875 33.660156 149.675781 41.386719 152.445312 49.285156 C 149.546875 50.03125 146.554688 50.164062 143.480469 49.546875 C 137.5 48.277344 130.730469 48.40625 126.203125 53.148438 C 120.441406 59.203125 121.894531 69.035156 124.398438 76.757812 C 116.488281 83.5625 112.925781 92.601562 116.179688 103.398438 C 118.15625 109.851562 117.367188 113.40625 112.707031 118.011719 L 107.871094 122.796875 L 113.804688 126.089844 C 114.726562 126.613281 115.652344 127.007812 116.617188 127.273438 C 113.585938 140.570312 118.773438 152.246094 128.003906 163.128906 C 130.90625 177.4375 141.71875 184.851562 154.03125 191.304688 C 156.316406 194.597656 159.171875 197.273438 162.515625 199.554688 C 169.945312 204.691406 179.132812 207.457031 185.023438 214.652344 L 188.980469 219.480469 L 192.9375 214.652344 C 198.78125 207.5 208.015625 204.734375 215.445312 199.554688 C 218.785156 197.273438 221.644531 194.597656 223.929688 191.304688 C 236.195312 184.898438 247.007812 177.480469 249.953125 163.128906 C 259.1875 152.246094 264.417969 140.570312 261.339844 127.273438 C 262.308594 127.007812 263.230469 126.613281 264.152344 126.089844 L 270.089844 122.796875 L 265.253906 118.011719 C 260.636719 113.40625 259.847656 109.894531 261.824219 103.398438 Z M 254.175781 121.917969 C 260.902344 137.105469 255.1875 149.4375 245.164062 160.847656 C 242.921875 174.714844 232.0625 181.386719 220.414062 187.355469 C 212.851562 199.335938 198.429688 199.863281 188.980469 211.40625 C 179.527344 199.863281 165.109375 199.335938 157.589844 187.355469 C 145.898438 181.34375 135.039062 174.714844 132.796875 160.847656 C 122.816406 149.480469 117.058594 137.105469 123.785156 121.917969 C 121.191406 122.796875 118.640625 122.929688 116.265625 121.65625 C 120.707031 117.265625 124.136719 112.21875 121.015625 101.949219 C 118.15625 92.515625 121.542969 84.746094 130.421875 78.558594 C 124.089844 62.539062 126.863281 51.261719 142.378906 54.597656 C 148.050781 55.824219 153.589844 54.859375 158.867188 52.488281 C 155.613281 42.660156 151.832031 33.089844 147.128906 23.960938 C 153.457031 24.707031 158.867188 26.59375 163.527344 29.449219 C 166.164062 27.957031 169.066406 27.957031 172.097656 29.140625 C 173.855469 25.675781 176.625 23.214844 181.242188 22.644531 C 183.21875 17.554688 185.988281 13.078125 188.980469 8.867188 C 191.96875 13.078125 194.738281 17.511719 196.714844 22.644531 C 201.332031 23.214844 204.101562 25.675781 205.859375 29.140625 C 208.9375 28 211.796875 27.957031 214.433594 29.449219 C 219.136719 26.59375 224.542969 24.664062 230.832031 23.960938 C 226.082031 33.046875 222.300781 42.613281 219.09375 52.488281 C 224.324219 54.859375 229.90625 55.824219 235.578125 54.597656 C 251.097656 51.261719 253.867188 62.539062 247.535156 78.558594 C 256.417969 84.746094 259.800781 92.515625 256.945312 101.949219 C 253.867188 112.175781 257.253906 117.222656 261.691406 121.65625 C 259.320312 122.929688 256.769531 122.796875 254.175781 121.917969 Z M 248.898438 108.929688 C 244.109375 101.863281 237.25 95.894531 234.566406 87.730469 C 238.746094 91.285156 242.613281 95.367188 245.691406 100.808594 C 246.746094 88.300781 238.128906 83.515625 231.84375 77.023438 C 227.488281 72.546875 223.578125 63.066406 216.851562 65.742188 L 209.421875 59.292969 L 214.257812 59.027344 C 208.058594 53.675781 203.265625 52.796875 197.550781 57.800781 C 201.726562 48.144531 207.972656 49.8125 216.894531 58.808594 C 223.621094 65.566406 230.832031 71.886719 238.347656 77.769531 C 256.109375 91.550781 250.128906 96.726562 248.898438 108.929688 Z M 129.058594 108.929688 C 127.828125 96.726562 121.851562 91.59375 139.609375 77.769531 C 147.128906 71.929688 154.335938 65.566406 161.019531 58.808594 C 169.945312 49.8125 176.1875 48.144531 180.363281 57.800781 C 174.691406 52.796875 169.898438 53.71875 163.65625 59.027344 L 168.492188 59.292969 L 161.152344 65.742188 C 154.425781 63.066406 150.511719 72.546875 146.160156 77.023438 C 139.832031 83.472656 131.214844 88.257812 132.3125 100.808594 C 135.347656 95.367188 139.214844 91.285156 143.390625 87.730469 C 140.710938 95.851562 133.851562 101.863281 129.058594 108.929688 Z M 242.875 66.445312 C 237.777344 65.171875 232.851562 63.503906 228.105469 61.355469 C 231.578125 61.355469 235.007812 61.046875 238.480469 60.609375 C 245.734375 59.773438 246.042969 66.136719 242.746094 74.214844 L 236.632812 69.121094 C 238.921875 68.507812 241.074219 67.761719 242.875 66.445312 Z M 188.980469 61.398438 C 194.738281 49.945312 201.375 40.769531 214.214844 49.109375 C 216.105469 43.929688 218.171875 38.753906 220.765625 33.75 C 218.214844 34.933594 215.972656 36.382812 213.863281 37.917969 C 211.75 32.914062 208.148438 33.574219 205.15625 37.085938 C 210.785156 37.039062 211.925781 43.273438 206.960938 44.195312 C 202.960938 44.941406 196.671875 42.351562 194.957031 38.359375 C 193.113281 33.96875 196.058594 29.359375 199.53125 34.800781 C 201.816406 30.28125 198.429688 27.210938 192.058594 28.746094 C 191.574219 25.148438 190.605469 21.855469 188.980469 18.871094 C 187.398438 21.855469 186.386719 25.148438 185.902344 28.746094 C 179.527344 27.210938 176.097656 30.28125 178.429688 34.800781 C 181.945312 29.359375 184.890625 33.96875 183 38.359375 C 181.328125 42.351562 175.042969 44.984375 171 44.195312 C 166.03125 43.273438 167.128906 36.996094 172.800781 37.085938 C 169.769531 33.617188 166.207031 32.914062 164.097656 37.917969 C 161.988281 36.382812 159.746094 34.933594 157.195312 33.75 C 159.746094 38.753906 161.855469 43.929688 163.746094 49.109375 C 176.625 40.769531 183.21875 49.945312 188.980469 61.398438 Z M 188.980469 35.546875 C 190.472656 38.664062 192.277344 41.515625 194.5625 43.886719 C 192.410156 45.46875 190.605469 47.355469 188.980469 49.328125 C 187.351562 47.355469 185.550781 45.511719 183.441406 43.886719 C 185.683594 41.515625 187.484375 38.707031 188.980469 35.546875 Z M 135.171875 74.167969 C 131.871094 66.09375 132.179688 59.730469 139.433594 60.5625 C 142.90625 61.003906 146.335938 61.308594 149.851562 61.308594 C 145.105469 63.460938 140.183594 65.128906 135.082031 66.402344 C 136.882812 67.71875 139.039062 68.464844 141.28125 69.035156 Z M 236.765625 102.871094 C 249.074219 119.460938 253.867188 135.4375 244.941406 150.3125 C 241.207031 143.292969 236.765625 136.535156 233.734375 129.292969 C 231.140625 144.390625 245.820312 157.117188 225.953125 174.582031 C 225.027344 167.253906 223.007812 160.277344 218.566406 153.957031 C 222.785156 185.027344 206.476562 186.039062 198.429688 192.578125 C 198.914062 188.277344 200.101562 183.929688 201.859375 179.5 C 196.363281 183.535156 192.234375 188.933594 188.980469 195.253906 C 185.726562 188.933594 181.59375 183.535156 176.097656 179.5 C 177.855469 183.929688 179.042969 188.277344 179.527344 192.578125 C 171.484375 186.039062 155.214844 184.984375 159.394531 153.957031 C 154.953125 160.277344 152.886719 167.253906 152.007812 174.582031 C 132.136719 157.074219 146.820312 144.34375 144.226562 129.246094 C 141.191406 136.488281 136.753906 143.246094 133.015625 150.269531 C 124.089844 135.4375 128.882812 119.460938 141.191406 102.828125 C 138.46875 116.519531 128.355469 126.042969 132.179688 135.699219 C 133.058594 126.835938 139.960938 121.789062 143.832031 114.851562 C 144.621094 118.320312 144.535156 121.742188 144.886719 125.167969 C 146.203125 120.691406 148.710938 117.089844 150.558594 113.054688 C 155.128906 128.195312 146.820312 142.675781 146.953125 157.644531 C 149.324219 150.707031 153.152344 144.476562 158.074219 138.816406 C 158.601562 139.296875 159.128906 139.691406 159.789062 140.042969 C 159.480469 143.820312 159.875 147.550781 160.933594 151.324219 C 162.164062 148.777344 163.703125 146.320312 165.589844 144.039062 C 163.4375 158.476562 167.394531 168.484375 174.253906 175.375 C 172.40625 169.800781 171.4375 163.960938 171.789062 157.773438 C 175.921875 165.148438 183.703125 170.328125 189.023438 177.875 C 194.34375 170.371094 202.125 165.148438 206.257812 157.773438 C 206.5625 163.960938 205.640625 169.800781 203.792969 175.375 C 210.652344 168.484375 214.566406 158.433594 212.410156 144.039062 C 214.300781 146.320312 215.882812 148.777344 217.070312 151.324219 C 218.125 147.550781 218.523438 143.820312 218.214844 140.042969 C 218.828125 139.691406 219.402344 139.296875 219.929688 138.816406 C 224.808594 144.519531 228.632812 150.707031 231.007812 157.644531 C 231.140625 142.675781 222.828125 128.195312 227.402344 113.054688 C 229.292969 117.089844 231.753906 120.691406 233.074219 125.167969 C 233.425781 121.742188 233.335938 118.277344 234.128906 114.851562 C 237.996094 121.789062 244.898438 126.835938 245.777344 135.699219 C 249.601562 126.089844 239.449219 116.566406 236.765625 102.871094 Z M 188.980469 131.925781 C 194.121094 131.925781 197.949219 140.835938 206.035156 142.632812 C 205.378906 155.800781 195.265625 158.433594 188.980469 163.613281 C 182.691406 158.433594 172.582031 155.800781 171.921875 142.632812 C 180.011719 140.878906 183.835938 131.925781 188.980469 131.925781 Z M 188.980469 72.414062 C 179.703125 60.082031 174.605469 59.421875 166.121094 69.605469 C 166.824219 70.703125 167.304688 71.886719 167.65625 73.074219 C 165.722656 72.371094 163.789062 71.710938 161.765625 71.183594 C 160.316406 70.789062 158.910156 71.183594 157.855469 72.238281 C 155.085938 75.003906 152.535156 77.855469 150.292969 80.882812 C 149.324219 82.199219 149.238281 83.867188 150.027344 85.273438 L 152.269531 89.179688 C 142.820312 107.699219 153.546875 105.8125 158.339844 111.34375 C 161.855469 107.523438 165.769531 104.890625 170.074219 103.484375 C 152.226562 124.550781 157.855469 148.03125 180.1875 129.949219 C 196.101562 117.089844 173.550781 97.472656 181.375 116.519531 C 178.121094 114.546875 175 112.394531 172.667969 109.410156 C 172.054688 108.664062 172.097656 107.566406 172.714844 106.820312 C 174.253906 105.066406 176.097656 103.484375 178.429688 102.125 C 178.691406 101.992188 178.957031 101.90625 179.21875 101.863281 C 182.472656 101.511719 185.636719 101.335938 188.890625 101.335938 C 192.144531 101.335938 195.308594 101.511719 198.5625 101.863281 C 198.828125 101.90625 199.089844 101.992188 199.355469 102.125 C 201.640625 103.441406 203.53125 105.066406 205.070312 106.820312 C 205.730469 107.566406 205.773438 108.621094 205.15625 109.410156 C 202.828125 112.394531 199.707031 114.5 196.453125 116.519531 C 204.277344 97.472656 181.726562 117.089844 197.640625 129.949219 C 220.015625 148.03125 225.601562 124.507812 207.75 103.484375 C 212.058594 104.890625 215.972656 107.523438 219.53125 111.34375 C 224.324219 105.8125 235.050781 107.699219 225.601562 89.179688 L 227.839844 85.273438 C 228.632812 83.867188 228.546875 82.199219 227.578125 80.882812 C 225.335938 77.855469 222.785156 75.003906 220.058594 72.238281 C 219.003906 71.183594 217.554688 70.789062 216.105469 71.183594 C 214.082031 71.710938 212.101562 72.414062 210.214844 73.074219 C 210.609375 71.886719 211.09375 70.703125 211.75 69.605469 C 203.398438 59.421875 198.253906 60.082031 188.980469 72.414062 Z M 181.988281 85.976562 C 178.957031 90.230469 176.140625 94.488281 173.417969 98.789062 C 173.855469 95.542969 174.429688 92.296875 175.4375 89.046875 C 172.273438 90.230469 169.066406 90.757812 165.722656 90.539062 C 168.273438 89.179688 170.777344 87.730469 173.109375 85.976562 L 167.128906 82.816406 C 165.769531 82.113281 164.183594 82.199219 162.910156 83.078125 L 160.84375 84.527344 C 161.855469 86.546875 163.175781 88.34375 164.535156 90.144531 C 161.019531 88.785156 158.03125 86.632812 154.425781 85.535156 C 157.679688 82.421875 161.988281 76.40625 166.867188 78.601562 L 174.03125 81.980469 C 174.253906 82.070312 174.472656 82.113281 174.691406 82.070312 C 175.484375 81.894531 176.230469 81.675781 176.976562 81.324219 C 177.417969 81.105469 177.636719 80.707031 177.550781 80.269531 C 177.285156 78.425781 176.847656 76.582031 176.273438 74.738281 C 178.382812 76.757812 180.273438 78.996094 181.988281 81.367188 C 183 82.726562 183 84.527344 181.988281 85.976562 Z M 211.09375 78.515625 C 215.972656 76.320312 220.28125 82.332031 223.535156 85.449219 C 219.972656 86.546875 216.9375 88.695312 213.421875 90.058594 C 214.785156 88.257812 216.105469 86.5 217.113281 84.4375 L 215.046875 82.992188 C 213.773438 82.113281 212.234375 82.023438 210.871094 82.726562 L 204.894531 85.886719 C 207.265625 87.597656 209.730469 89.089844 212.277344 90.453125 C 208.9375 90.671875 205.683594 90.144531 202.5625 88.960938 C 203.574219 92.207031 204.101562 95.453125 204.585938 98.703125 C 201.859375 94.402344 199.046875 90.144531 196.011719 85.886719 C 195.003906 84.4375 195.003906 82.640625 196.011719 81.191406 C 197.683594 78.820312 199.574219 76.582031 201.683594 74.566406 C 201.15625 76.40625 200.671875 78.25 200.410156 80.09375 C 200.367188 80.53125 200.585938 80.972656 200.980469 81.148438 C 201.726562 81.5 202.519531 81.71875 203.265625 81.894531 C 203.488281 81.9375 203.707031 81.894531 203.925781 81.804688 Z M 211.09375 78.515625 " fill-opacity="1" fill-rule="evenodd"/></g><g fill="#dddac4" fill-opacity="1"><g transform="translate(33.085316, 287.529426)"><g><path d="M 32.308594 -13.589844 L 24.621094 -1.113281 L 15.597656 -1.113281 L 15.597656 -37.429688 L 18.382812 -37.878906 L 18.382812 -38.992188 L 0.558594 -38.992188 L 0.558594 -37.878906 L 3.34375 -37.429688 L 3.34375 -1.558594 L 0.558594 -1.113281 L 0.558594 0 L 33.421875 0 L 33.421875 -13.589844 Z M 32.308594 -13.589844 "/></g></g></g><g fill="#dddac4" fill-opacity="1"><g transform="translate(75.642729, 287.529426)"><g><path d="M 0.558594 -37.878906 L 3.34375 -37.429688 L 3.34375 -1.558594 L 0.558594 -1.113281 L 0.558594 0 L 18.382812 0 L 18.382812 -1.113281 L 15.597656 -1.503906 L 15.597656 -37.429688 L 18.382812 -37.878906 L 18.382812 -38.992188 L 0.558594 -38.992188 Z M 0.558594 -37.878906 "/></g></g></g><g fill="#dddac4" fill-opacity="1"><g transform="translate(103.160898, 287.529426)"><g><path d="M 22.835938 -39.546875 C 9.804688 -39.546875 1.671875 -31.972656 1.671875 -19.496094 C 1.671875 -7.019531 9.804688 0.558594 22.835938 0.558594 C 35.984375 0.558594 44.003906 -7.019531 44.003906 -19.496094 C 44.003906 -31.972656 35.984375 -39.546875 22.835938 -39.546875 Z M 22.835938 -38.433594 C 27.515625 -38.433594 29.855469 -34.535156 29.855469 -19.496094 C 29.855469 -4.457031 27.515625 -0.558594 22.835938 -0.558594 C 18.160156 -0.558594 15.820312 -4.789062 15.820312 -19.496094 C 15.820312 -34.535156 18.160156 -38.433594 22.835938 -38.433594 Z M 22.835938 -38.433594 "/></g></g></g><g fill="#dddac4" fill-opacity="1"><g transform="translate(157.415493, 287.529426)"><g><path d="M 0.558594 -37.878906 L 3.34375 -37.429688 L 3.34375 -1.558594 L 0.558594 -1.113281 L 0.558594 0 L 7.242188 0 L 7.242188 -1.113281 L 4.457031 -1.558594 L 4.457031 -36.761719 L 22.613281 0 L 38.992188 0 L 38.992188 -1.113281 L 36.207031 -1.558594 L 36.207031 -37.429688 L 38.992188 -37.878906 L 38.992188 -38.992188 L 32.308594 -38.992188 L 32.308594 -37.878906 L 35.09375 -37.429688 L 35.09375 -2.226562 L 16.933594 -38.992188 L 0.558594 -38.992188 Z M 0.558594 -37.878906 "/></g></g></g><g fill="#dddac4" fill-opacity="1"><g transform="translate(205.543001, 287.529426)"><g><path d="M 0.558594 -37.878906 L 3.34375 -37.429688 L 3.34375 -1.558594 L 0.558594 -1.113281 L 0.558594 0 L 25.621094 0 C 34.3125 0 42.332031 -6.015625 42.332031 -19.496094 C 42.332031 -32.976562 34.3125 -38.992188 25.621094 -38.992188 L 0.558594 -38.992188 Z M 15.597656 -37.878906 L 18.9375 -37.878906 C 25.066406 -37.878906 30.078125 -33.753906 30.078125 -19.496094 C 30.078125 -5.125 24.507812 -1.113281 18.9375 -1.113281 L 15.597656 -1.113281 Z M 15.597656 -37.878906 "/></g></g></g><g fill="#dddac4" fill-opacity="1"><g transform="translate(258.126575, 287.529426)"><g><path d="M 3.34375 -38.992188 L 0.558594 -38.992188 L 0.558594 -37.878906 L 3.34375 -37.429688 L 3.34375 -1.558594 L 0.558594 -1.113281 L 0.558594 0 L 33.421875 0 L 33.421875 -12.253906 L 32.308594 -12.253906 L 24.730469 -1.113281 L 15.597656 -1.113281 L 15.597656 -18.9375 L 24.398438 -18.9375 L 25.398438 -14.816406 L 26.515625 -14.816406 L 26.515625 -24.285156 L 25.398438 -24.285156 L 24.398438 -20.050781 L 15.597656 -20.050781 L 15.597656 -37.878906 L 24.730469 -37.878906 L 32.308594 -26.738281 L 33.421875 -26.738281 L 33.421875 -38.992188 Z M 3.34375 -38.992188 "/></g></g></g><g fill="#dddac4" fill-opacity="1"><g transform="translate(301.797997, 287.529426)"><g><path d="M 16.597656 -37.542969 L 18.9375 -37.878906 L 18.9375 -38.992188 L 0.558594 -38.992188 L 0.558594 -37.878906 L 3.453125 -37.429688 L 13.703125 0 L 26.515625 0 L 36.652344 -37.375 L 39.546875 -37.878906 L 39.546875 -38.992188 L 32.863281 -38.992188 L 32.863281 -37.878906 L 35.539062 -37.429688 L 26.066406 -2.785156 L 25.84375 -2.226562 L 25.734375 -2.785156 Z M 16.597656 -37.542969 "/></g></g></g><g fill="#dddac4" fill-opacity="1"><g transform="translate(69.61637, 336.697656)"><g><path d="M 6.476562 -8.863281 L 9.375 -10.894531 L 11.570312 -9.519531 L 4.328125 2.066406 L 3.164062 1.484375 L 2.941406 1.839844 L 4.039062 2.523438 L 6.164062 3.855469 L 7.261719 4.539062 L 7.484375 4.1875 L 6.453125 3.394531 L 13.695312 -8.191406 L 15.875 -6.828125 L 15.335938 -3.324219 L 15.6875 -3.101562 L 17.417969 -5.867188 L 17.636719 -6.222656 L 15.9375 -7.285156 L 13.917969 -8.546875 L 11.792969 -9.875 L 9.738281 -11.160156 L 8.070312 -12.203125 L 7.851562 -11.847656 L 6.121094 -9.082031 Z M 6.476562 -8.863281 "/></g></g></g><g fill="#dddac4" fill-opacity="1"><g transform="translate(90.675388, 349.040653)"><g><path d="M 7.796875 -12.488281 L 6.625 -13.042969 L 6.445312 -12.664062 L 7.5625 -11.996094 L 1.742188 0.226562 L 0.519531 -0.214844 L 0.339844 0.160156 L 1.507812 0.71875 L 2.488281 1.183594 L 2.714844 1.292969 L 3.773438 1.796875 L 8.675781 4.132812 L 10.488281 4.992188 L 10.667969 4.617188 L 11.90625 2.011719 L 11.53125 1.832031 L 9.046875 3.84375 L 3.953125 1.417969 L 6.828125 -4.617188 L 10.84375 -2.703125 L 10.347656 -1.226562 L 10.726562 -1.046875 L 11.390625 -2.445312 L 11.570312 -2.820312 L 12.253906 -4.253906 L 11.875 -4.433594 L 11.023438 -3.082031 L 7.003906 -4.996094 L 9.878906 -11.03125 L 14.972656 -8.605469 L 14.980469 -5.410156 L 15.355469 -5.230469 L 16.59375 -7.835938 L 16.773438 -8.210938 L 14.964844 -9.074219 L 10.058594 -11.410156 L 9.003906 -11.910156 L 8.777344 -12.019531 Z M 7.796875 -12.488281 "/></g></g></g><g fill="#dddac4" fill-opacity="1"><g transform="translate(113.519438, 359.140726)"><g><path d="M 15.035156 -9.917969 L 15.300781 -6.257812 L 15.695312 -6.121094 L 16.777344 -9.328125 L 16.910156 -9.726562 L 15.011719 -10.367188 L 11.488281 -11.558594 C 8.398438 -12.597656 4.839844 -11.464844 3.210938 -6.632812 C 1.578125 -1.804688 3.722656 1.257812 6.808594 2.300781 L 12.234375 4.128906 L 12.367188 3.734375 L 8.882812 2.558594 C 6.070312 1.609375 3.941406 -0.960938 5.585938 -5.832031 C 7.230469 -10.703125 10.085938 -11.589844 12.699219 -10.707031 Z M 15.035156 -9.917969 "/></g></g></g><g fill="#dddac4" fill-opacity="1"><g transform="translate(138.630291, 366.845577)"><g><path d="M 3.195312 -13.847656 L 4.441406 -13.46875 L 1.746094 -0.199219 L 0.453125 -0.335938 L 0.367188 0.0742188 L 1.636719 0.332031 L 4.09375 0.832031 L 5.363281 1.089844 L 5.449219 0.679688 L 4.203125 0.300781 L 5.507812 -6.128906 L 12.386719 -4.734375 L 11.082031 1.695312 L 9.746094 1.554688 L 9.664062 1.960938 L 10.972656 2.226562 L 13.429688 2.726562 L 14.699219 2.984375 L 14.785156 2.574219 L 13.539062 2.195312 L 16.234375 -11.074219 L 17.527344 -10.9375 L 17.609375 -11.347656 L 16.339844 -11.605469 L 13.882812 -12.105469 L 12.574219 -12.371094 L 12.492188 -11.960938 L 13.777344 -11.570312 L 12.472656 -5.140625 L 5.589844 -6.539062 L 6.898438 -12.96875 L 8.191406 -12.832031 L 8.273438 -13.242188 L 7.003906 -13.5 L 4.546875 -14 L 3.277344 -14.257812 Z M 3.195312 -13.847656 "/></g></g></g><g fill="#dddac4" fill-opacity="1"><g transform="translate(166.046623, 371.582947)"><g><path d="M 1.40625 -14.140625 L 2.691406 -13.984375 L 1.703125 -0.359375 L 0.40625 -0.390625 L 0.375 0.0273438 L 1.667969 0.121094 L 2.082031 0.152344 L 3.375 0.246094 L 3.40625 -0.171875 L 2.117188 -0.328125 L 3.082031 -13.601562 L 3.097656 -13.808594 L 10.253906 0.746094 L 12.710938 0.921875 L 12.792969 0.929688 L 13.085938 0.949219 L 13.128906 0.953125 L 14.417969 1.046875 L 14.449219 0.632812 L 13.164062 0.472656 L 14.152344 -13.152344 L 15.449219 -13.121094 L 15.480469 -13.539062 L 14.1875 -13.632812 L 13.769531 -13.664062 L 12.480469 -13.757812 L 12.449219 -13.339844 L 13.734375 -13.183594 L 12.773438 0.0898438 L 12.757812 0.296875 L 5.601562 -14.257812 L 3.144531 -14.433594 L 3.019531 -14.445312 L 2.769531 -14.460938 L 2.726562 -14.464844 L 1.433594 -14.558594 Z M 1.40625 -14.140625 "/></g></g></g><g fill="#dddac4" fill-opacity="1"><g transform="translate(193.350333, 372.791862)"><g><path d="M 7.089844 -15.257812 C 2.75 -15.011719 0.238281 -12.023438 0.503906 -7.351562 C 0.769531 -2.679688 3.597656 0.00390625 7.9375 -0.238281 C 12.277344 -0.484375 14.785156 -3.472656 14.523438 -8.144531 C 14.257812 -12.820312 11.425781 -15.503906 7.089844 -15.257812 Z M 7.113281 -14.839844 C 9.738281 -14.992188 11.359375 -13.03125 11.644531 -7.984375 C 11.929688 -2.933594 10.542969 -0.804688 7.914062 -0.65625 C 5.285156 -0.507812 3.667969 -2.507812 3.382812 -7.515625 C 3.097656 -12.5625 4.484375 -14.691406 7.113281 -14.839844 Z M 7.113281 -14.839844 "/></g></g></g><g fill="#dddac4" fill-opacity="1"><g transform="translate(221.572579, 370.311592)"><g><path d="M 10.390625 -5.484375 L 9.566406 -2.152344 L 4.039062 -1.152344 L 1.609375 -14.601562 L 2.863281 -14.953125 L 2.785156 -15.363281 L 1.511719 -15.132812 L -0.953125 -14.6875 L -2.230469 -14.457031 L -2.15625 -14.046875 L -0.859375 -14.15625 L 1.546875 -0.832031 L 0.296875 -0.476562 L 0.371094 -0.0664062 L 1.644531 -0.296875 L 2.714844 -0.488281 L 2.960938 -0.535156 L 4.113281 -0.742188 L 9.457031 -1.707031 L 11.390625 -2.058594 L 11.429688 -2.066406 L 10.800781 -5.558594 Z M 10.390625 -5.484375 "/></g></g></g><g fill="#dddac4" fill-opacity="1"><g transform="translate(245.434995, 365.350206)"><g><path d="M 3.1875 -16.519531 C -0.964844 -15.230469 -2.675781 -11.726562 -1.289062 -7.257812 C 0.0976562 -2.785156 3.492188 -0.867188 7.644531 -2.152344 C 11.796875 -3.441406 13.507812 -6.945312 12.121094 -11.417969 C 10.734375 -15.886719 7.335938 -17.808594 3.1875 -16.519531 Z M 3.3125 -16.121094 C 5.824219 -16.902344 7.867188 -15.390625 9.367188 -10.5625 C 10.863281 -5.734375 10.035156 -3.332031 7.519531 -2.550781 C 5.007812 -1.773438 2.949219 -3.320312 1.464844 -8.109375 C -0.0351562 -12.941406 0.796875 -15.339844 3.3125 -16.121094 Z M 3.3125 -16.121094 "/></g></g></g><g fill="#dddac4" fill-opacity="1"><g transform="translate(272.253441, 356.132068)"><g><path d="M 3.574219 -9.894531 L 3.746094 -9.515625 L 6.519531 -10.777344 L 9.292969 -4.695312 L 8 -4.105469 C 5.1875 -2.824219 1.972656 -3.929688 0.0859375 -8.074219 C -1.804688 -12.21875 -0.757812 -15.265625 1.902344 -16.480469 L 4.222656 -17.539062 L 6.671875 -15.484375 L 7.050781 -15.660156 L 5.855469 -18.28125 L 5.683594 -18.664062 L 3.859375 -17.832031 L 0.511719 -16.304688 C -2.453125 -14.953125 -4.308594 -11.671875 -2.195312 -7.035156 C -0.0820312 -2.394531 3.613281 -1.644531 6.578125 -3 L 9.46875 -4.316406 L 10.644531 -4.851562 L 11.75 -5.355469 L 8.628906 -12.199219 Z M 3.574219 -9.894531 "/></g></g></g><g fill="#dddac4" fill-opacity="1"><g transform="translate(295.90657, 344.534913)"><g><path d="M -3.625 -14.332031 L -2.609375 -15.078125 L -2.832031 -15.433594 L -3.933594 -14.753906 L -6.246094 -13.328125 L -7.347656 -12.648438 L -7.128906 -12.292969 L -5.90625 -12.898438 L 3.039062 -6.777344 L 4.945312 -3.683594 L 3.90625 -2.898438 L 4.128906 -2.542969 L 5.230469 -3.222656 L 7.363281 -4.535156 L 8.503906 -5.238281 L 8.285156 -5.59375 L 7.082031 -5 L 5.171875 -8.09375 L 3.753906 -18.921875 L 4.859375 -19.679688 L 4.640625 -20.035156 L 3.539062 -19.355469 L 3.148438 -19.113281 L 2.042969 -18.433594 L 2.261719 -18.078125 L 3.363281 -18.683594 L 4.671875 -8.667969 Z M -3.625 -14.332031 "/></g></g></g><g fill="#dddac4" fill-opacity="1"><g transform="translate(35.731858, 189.594368)"><g><path d="M 1.503906 -13.484375 L 0.347656 -13.484375 L 0.347656 -13.097656 L 1.503906 -12.984375 L 1.503906 -0.5 L 0.347656 -0.386719 L 0.347656 0 L 10.824219 0 L 10.824219 -3.199219 L 10.441406 -3.199219 L 9.015625 -0.386719 L 4.046875 -0.386719 L 4.046875 -6.550781 L 8.03125 -6.550781 L 8.207031 -5.125 L 8.589844 -5.125 L 8.589844 -8.398438 L 8.207031 -8.398438 L 8.03125 -6.933594 L 4.046875 -6.933594 L 4.046875 -13.097656 L 9.015625 -13.097656 L 10.441406 -10.324219 L 10.824219 -10.324219 L 10.824219 -13.484375 Z M 1.503906 -13.484375 "/></g></g></g><g fill="#dddac4" fill-opacity="1"><g transform="translate(50.290946, 189.594368)"><g><path d="M 8.339844 -13.097656 L 9.746094 -10.054688 L 10.132812 -10.054688 L 10.132812 -13.484375 L 4.660156 -13.484375 C 2.3125 -13.484375 0.808594 -11.980469 0.808594 -9.824219 C 0.808594 -7.667969 1.8125 -6.394531 3.8125 -5.933594 L 6.242188 -5.355469 C 7.820312 -4.96875 8.550781 -4.238281 8.550781 -2.734375 C 8.550781 -1.195312 7.511719 -0.386719 6.011719 -0.386719 L 3.140625 -0.386719 L 1.695312 -3.46875 L 1.308594 -3.46875 L 1.308594 0 L 7.320312 0 C 9.667969 0 11.09375 -1.539062 11.09375 -3.699219 C 11.09375 -5.855469 10.132812 -7.089844 8.128906 -7.550781 L 5.664062 -8.128906 C 4.082031 -8.515625 3.351562 -9.246094 3.351562 -10.75 C 3.351562 -12.289062 4.429688 -13.097656 5.933594 -13.097656 Z M 8.339844 -13.097656 "/></g></g></g><g fill="#dddac4" fill-opacity="1"><g transform="translate(65.004087, 189.594368)"><g><path d="M 0.730469 -9.9375 L 2.136719 -13.097656 L 4.316406 -13.097656 L 4.316406 -0.519531 L 3.160156 -0.386719 L 3.160156 0 L 8.011719 0 L 8.011719 -0.386719 L 6.859375 -0.519531 L 6.859375 -13.097656 L 8.996094 -13.097656 L 10.480469 -9.9375 L 10.863281 -9.9375 L 10.863281 -13.484375 L 0.347656 -13.484375 L 0.347656 -9.9375 Z M 0.730469 -9.9375 "/></g></g></g><g fill="#dddac4" fill-opacity="1"><g transform="translate(79.062529, 189.594368)"><g><path d="M 0.347656 -13.097656 L 1.503906 -12.984375 L 1.503906 -0.5 L 0.347656 -0.386719 L 0.347656 0 L 7.898438 0 C 10.902344 0 13.675781 -2.042969 13.675781 -6.742188 C 13.675781 -11.441406 10.902344 -13.484375 7.898438 -13.484375 L 0.347656 -13.484375 Z M 4.046875 -13.097656 L 6.585938 -13.097656 C 9.015625 -13.097656 11.132812 -11.519531 11.132812 -6.742188 C 11.132812 -1.964844 8.898438 -0.386719 6.585938 -0.386719 L 4.046875 -0.386719 Z M 4.046875 -13.097656 "/></g></g></g><g fill="#dddac4" fill-opacity="1"><g transform="translate(283.901617, 189.594368)"><g><path d="M 7.433594 -13.484375 L 1.8125 -13.484375 L 1.8125 -10.324219 L 2.195312 -10.324219 L 3.621094 -13.097656 L 5.738281 -13.097656 C 7.164062 -13.097656 8.246094 -12.445312 8.246094 -10.902344 C 8.246094 -9.246094 7.433594 -8.550781 6.125 -8.167969 L 3.929688 -7.472656 C 1.925781 -6.78125 0.847656 -5.664062 0.847656 -3.46875 C 0.847656 -1.308594 2.195312 0 4.199219 0 L 10.246094 0 L 10.246094 -3.199219 L 9.902344 -3.199219 L 8.476562 -0.386719 L 5.894531 -0.386719 C 4.46875 -0.386719 3.351562 -1.195312 3.351562 -2.734375 C 3.351562 -4.199219 4.121094 -4.894531 5.433594 -5.316406 L 7.703125 -6.046875 C 9.667969 -6.703125 10.75 -7.898438 10.75 -9.976562 C 10.75 -12.136719 9.4375 -13.484375 7.433594 -13.484375 Z M 7.433594 -13.484375 "/></g></g></g><g fill="#dddac4" fill-opacity="1"><g transform="translate(298.422202, 189.594368)"><g><path d="M 6.28125 -13.292969 C 8.207031 -13.292969 9.246094 -11.519531 9.246094 -6.742188 C 9.246094 -1.964844 8.207031 -0.191406 6.28125 -0.191406 C 4.351562 -0.191406 3.3125 -2.042969 3.3125 -6.742188 C 3.3125 -11.519531 4.351562 -13.292969 6.28125 -13.292969 Z M 6.28125 -13.675781 C 2.851562 -13.675781 0.808594 -11.132812 0.808594 -6.742188 C 0.808594 -2.351562 2.851562 0.191406 6.28125 0.191406 C 9.707031 0.191406 11.710938 -2.351562 11.710938 -6.742188 C 11.710938 -11.132812 9.707031 -13.675781 6.28125 -13.675781 Z M 6.28125 -13.675781 "/></g></g></g><g fill="#dddac4" fill-opacity="1"><g transform="translate(313.905573, 189.594368)"><g><path d="M 7.433594 -13.484375 L 1.8125 -13.484375 L 1.8125 -10.324219 L 2.195312 -10.324219 L 3.621094 -13.097656 L 5.738281 -13.097656 C 7.164062 -13.097656 8.246094 -12.445312 8.246094 -10.902344 C 8.246094 -9.246094 7.433594 -8.550781 6.125 -8.167969 L 3.929688 -7.472656 C 1.925781 -6.78125 0.847656 -5.664062 0.847656 -3.46875 C 0.847656 -1.308594 2.195312 0 4.199219 0 L 10.246094 0 L 10.246094 -3.199219 L 9.902344 -3.199219 L 8.476562 -0.386719 L 5.894531 -0.386719 C 4.46875 -0.386719 3.351562 -1.195312 3.351562 -2.734375 C 3.351562 -4.199219 4.121094 -4.894531 5.433594 -5.316406 L 7.703125 -6.046875 C 9.667969 -6.703125 10.75 -7.898438 10.75 -9.976562 C 10.75 -12.136719 9.4375 -13.484375 7.433594 -13.484375 Z M 7.433594 -13.484375 "/></g></g></g><g fill="#dddac4" fill-opacity="1"><g transform="translate(328.426156, 189.594368)"><g><path d="M 7.433594 -13.484375 L 1.8125 -13.484375 L 1.8125 -10.324219 L 2.195312 -10.324219 L 3.621094 -13.097656 L 5.738281 -13.097656 C 7.164062 -13.097656 8.246094 -12.445312 8.246094 -10.902344 C 8.246094 -9.246094 7.433594 -8.550781 6.125 -8.167969 L 3.929688 -7.472656 C 1.925781 -6.78125 0.847656 -5.664062 0.847656 -3.46875 C 0.847656 -1.308594 2.195312 0 4.199219 0 L 10.246094 0 L 10.246094 -3.199219 L 9.902344 -3.199219 L 8.476562 -0.386719 L 5.894531 -0.386719 C 4.46875 -0.386719 3.351562 -1.195312 3.351562 -2.734375 C 3.351562 -4.199219 4.121094 -4.894531 5.433594 -5.316406 L 7.703125 -6.046875 C 9.667969 -6.703125 10.75 -7.898438 10.75 -9.976562 C 10.75 -12.136719 9.4375 -13.484375 7.433594 -13.484375 Z M 7.433594 -13.484375 "/></g></g></g></svg>